<mxfile host="app.diagrams.net" modified="2021-10-15T09:50:54.040Z" agent="5.0 (Windows NT 10.0; Win64; x64) AppleWebKit/537.36 (KHTML, like Gecko) Chrome/96.0.4664.9 Safari/537.36" etag="nDsZbm3pzHZ9PRxl_JET" version="15.5.2" type="github" pages="2">
  <diagram id="prtHgNgQTEPvFCAcTncT" name="library book barrow">
    <mxGraphModel dx="2031" dy="1089" grid="1" gridSize="10" guides="1" tooltips="1" connect="1" arrows="1" fold="1" page="1" pageScale="1" pageWidth="827" pageHeight="1169" math="0" shadow="0">
      <root>
        <mxCell id="0" />
        <mxCell id="1" parent="0" />
        <mxCell id="lMvp6kesY2Yli7OYDsl8-5" value="" style="edgeStyle=orthogonalEdgeStyle;rounded=0;orthogonalLoop=1;jettySize=auto;html=1;" edge="1" parent="1" source="lMvp6kesY2Yli7OYDsl8-1" target="lMvp6kesY2Yli7OYDsl8-4">
          <mxGeometry relative="1" as="geometry" />
        </mxCell>
        <mxCell id="lMvp6kesY2Yli7OYDsl8-1" value="" style="strokeWidth=2;html=1;shape=mxgraph.flowchart.start_2;whiteSpace=wrap;fillColor=#000000;" vertex="1" parent="1">
          <mxGeometry x="330" y="30" width="60" height="60" as="geometry" />
        </mxCell>
        <mxCell id="lMvp6kesY2Yli7OYDsl8-7" value="" style="edgeStyle=orthogonalEdgeStyle;rounded=0;orthogonalLoop=1;jettySize=auto;html=1;" edge="1" parent="1" source="lMvp6kesY2Yli7OYDsl8-4" target="lMvp6kesY2Yli7OYDsl8-6">
          <mxGeometry relative="1" as="geometry" />
        </mxCell>
        <mxCell id="lMvp6kesY2Yli7OYDsl8-4" value="validate ID card" style="whiteSpace=wrap;html=1;strokeWidth=2;fillColor=none;rounded=1;" vertex="1" parent="1">
          <mxGeometry x="300" y="170" width="120" height="60" as="geometry" />
        </mxCell>
        <mxCell id="lMvp6kesY2Yli7OYDsl8-9" value="" style="edgeStyle=orthogonalEdgeStyle;rounded=0;orthogonalLoop=1;jettySize=auto;html=1;" edge="1" parent="1" source="lMvp6kesY2Yli7OYDsl8-6" target="lMvp6kesY2Yli7OYDsl8-8">
          <mxGeometry relative="1" as="geometry" />
        </mxCell>
        <mxCell id="lMvp6kesY2Yli7OYDsl8-18" style="edgeStyle=orthogonalEdgeStyle;rounded=0;orthogonalLoop=1;jettySize=auto;html=1;entryX=0;entryY=0.5;entryDx=0;entryDy=0;entryPerimeter=0;" edge="1" parent="1" source="lMvp6kesY2Yli7OYDsl8-6" target="lMvp6kesY2Yli7OYDsl8-19">
          <mxGeometry relative="1" as="geometry">
            <mxPoint x="620" y="830" as="targetPoint" />
            <Array as="points">
              <mxPoint x="360" y="785" />
            </Array>
          </mxGeometry>
        </mxCell>
        <mxCell id="lMvp6kesY2Yli7OYDsl8-6" value="" style="rhombus;whiteSpace=wrap;html=1;rounded=0;strokeWidth=2;fillColor=none;" vertex="1" parent="1">
          <mxGeometry x="320" y="300" width="80" height="80" as="geometry" />
        </mxCell>
        <mxCell id="lMvp6kesY2Yli7OYDsl8-11" value="" style="edgeStyle=orthogonalEdgeStyle;rounded=0;orthogonalLoop=1;jettySize=auto;html=1;" edge="1" parent="1" source="lMvp6kesY2Yli7OYDsl8-8" target="lMvp6kesY2Yli7OYDsl8-10">
          <mxGeometry relative="1" as="geometry" />
        </mxCell>
        <mxCell id="lMvp6kesY2Yli7OYDsl8-8" value="check for overdue books and fines" style="whiteSpace=wrap;html=1;rounded=1;strokeWidth=2;fillColor=none;" vertex="1" parent="1">
          <mxGeometry x="460" y="310" width="120" height="60" as="geometry" />
        </mxCell>
        <mxCell id="lMvp6kesY2Yli7OYDsl8-13" value="" style="edgeStyle=orthogonalEdgeStyle;rounded=0;orthogonalLoop=1;jettySize=auto;html=1;" edge="1" parent="1" source="lMvp6kesY2Yli7OYDsl8-10" target="lMvp6kesY2Yli7OYDsl8-12">
          <mxGeometry relative="1" as="geometry" />
        </mxCell>
        <mxCell id="lMvp6kesY2Yli7OYDsl8-21" style="edgeStyle=orthogonalEdgeStyle;rounded=0;orthogonalLoop=1;jettySize=auto;html=1;entryX=0;entryY=0.5;entryDx=0;entryDy=0;entryPerimeter=0;" edge="1" parent="1" source="lMvp6kesY2Yli7OYDsl8-10" target="lMvp6kesY2Yli7OYDsl8-22">
          <mxGeometry relative="1" as="geometry">
            <mxPoint x="520" y="600" as="targetPoint" />
            <Array as="points">
              <mxPoint x="520" y="655" />
            </Array>
          </mxGeometry>
        </mxCell>
        <mxCell id="lMvp6kesY2Yli7OYDsl8-10" value="" style="rhombus;whiteSpace=wrap;html=1;rounded=0;strokeWidth=2;fillColor=none;" vertex="1" parent="1">
          <mxGeometry x="480" y="440" width="80" height="80" as="geometry" />
        </mxCell>
        <mxCell id="lMvp6kesY2Yli7OYDsl8-17" style="edgeStyle=orthogonalEdgeStyle;rounded=0;orthogonalLoop=1;jettySize=auto;html=1;entryX=1;entryY=0.5;entryDx=0;entryDy=0;entryPerimeter=0;exitX=1;exitY=0.5;exitDx=0;exitDy=0;" edge="1" parent="1" source="lMvp6kesY2Yli7OYDsl8-12" target="lMvp6kesY2Yli7OYDsl8-22">
          <mxGeometry relative="1" as="geometry">
            <mxPoint x="670" y="710" as="targetPoint" />
            <Array as="points">
              <mxPoint x="780" y="480" />
              <mxPoint x="780" y="655" />
            </Array>
          </mxGeometry>
        </mxCell>
        <mxCell id="lMvp6kesY2Yli7OYDsl8-12" value="checkout books" style="whiteSpace=wrap;html=1;rounded=1;strokeWidth=2;fillColor=none;" vertex="1" parent="1">
          <mxGeometry x="607.5" y="450" width="120" height="60" as="geometry" />
        </mxCell>
        <mxCell id="lMvp6kesY2Yli7OYDsl8-16" value="" style="group" vertex="1" connectable="0" parent="1">
          <mxGeometry x="662.5" y="910" width="60" height="60" as="geometry" />
        </mxCell>
        <mxCell id="lMvp6kesY2Yli7OYDsl8-14" value="" style="strokeWidth=2;html=1;shape=mxgraph.flowchart.start_2;whiteSpace=wrap;rounded=1;fillColor=none;" vertex="1" parent="lMvp6kesY2Yli7OYDsl8-16">
          <mxGeometry width="60" height="60" as="geometry" />
        </mxCell>
        <mxCell id="lMvp6kesY2Yli7OYDsl8-15" value="" style="strokeWidth=2;html=1;shape=mxgraph.flowchart.start_2;whiteSpace=wrap;rounded=1;fillColor=#000000;" vertex="1" parent="lMvp6kesY2Yli7OYDsl8-16">
          <mxGeometry x="5" y="5" width="50" height="50" as="geometry" />
        </mxCell>
        <mxCell id="lMvp6kesY2Yli7OYDsl8-20" style="edgeStyle=orthogonalEdgeStyle;rounded=0;orthogonalLoop=1;jettySize=auto;html=1;entryX=0.5;entryY=0;entryDx=0;entryDy=0;entryPerimeter=0;" edge="1" parent="1" source="lMvp6kesY2Yli7OYDsl8-19" target="lMvp6kesY2Yli7OYDsl8-15">
          <mxGeometry relative="1" as="geometry" />
        </mxCell>
        <mxCell id="lMvp6kesY2Yli7OYDsl8-19" value="" style="strokeWidth=2;html=1;shape=mxgraph.flowchart.decision;whiteSpace=wrap;rounded=1;fillColor=none;" vertex="1" parent="1">
          <mxGeometry x="655" y="750" width="75" height="70" as="geometry" />
        </mxCell>
        <mxCell id="lMvp6kesY2Yli7OYDsl8-23" style="edgeStyle=orthogonalEdgeStyle;rounded=0;orthogonalLoop=1;jettySize=auto;html=1;entryX=0.5;entryY=0;entryDx=0;entryDy=0;entryPerimeter=0;" edge="1" parent="1" source="lMvp6kesY2Yli7OYDsl8-22" target="lMvp6kesY2Yli7OYDsl8-19">
          <mxGeometry relative="1" as="geometry" />
        </mxCell>
        <mxCell id="lMvp6kesY2Yli7OYDsl8-22" value="" style="strokeWidth=2;html=1;shape=mxgraph.flowchart.decision;whiteSpace=wrap;rounded=1;fillColor=none;" vertex="1" parent="1">
          <mxGeometry x="657.5" y="620" width="70" height="70" as="geometry" />
        </mxCell>
      </root>
    </mxGraphModel>
  </diagram>
  <diagram id="295ewP2aM1Tux-ZiSIFp" name="Page-2">
    <mxGraphModel dx="2031" dy="1024" grid="1" gridSize="10" guides="1" tooltips="1" connect="1" arrows="1" fold="1" page="1" pageScale="1" pageWidth="827" pageHeight="1169" math="0" shadow="0">
      <root>
        <mxCell id="g7bd4FB1pQx1--MT-t91-0" />
        <mxCell id="g7bd4FB1pQx1--MT-t91-1" parent="g7bd4FB1pQx1--MT-t91-0" />
        <mxCell id="g7bd4FB1pQx1--MT-t91-19" style="edgeStyle=orthogonalEdgeStyle;rounded=0;orthogonalLoop=1;jettySize=auto;html=1;entryX=0;entryY=0.5;entryDx=0;entryDy=0;endArrow=none;endFill=0;" edge="1" parent="g7bd4FB1pQx1--MT-t91-1" source="g7bd4FB1pQx1--MT-t91-2" target="g7bd4FB1pQx1--MT-t91-8">
          <mxGeometry relative="1" as="geometry" />
        </mxCell>
        <mxCell id="g7bd4FB1pQx1--MT-t91-20" style="rounded=0;orthogonalLoop=1;jettySize=auto;html=1;entryX=0;entryY=0.5;entryDx=0;entryDy=0;endArrow=none;endFill=0;" edge="1" parent="g7bd4FB1pQx1--MT-t91-1" source="g7bd4FB1pQx1--MT-t91-2" target="g7bd4FB1pQx1--MT-t91-9">
          <mxGeometry relative="1" as="geometry" />
        </mxCell>
        <mxCell id="g7bd4FB1pQx1--MT-t91-21" style="edgeStyle=none;rounded=0;orthogonalLoop=1;jettySize=auto;html=1;entryX=0;entryY=0.5;entryDx=0;entryDy=0;endArrow=none;endFill=0;" edge="1" parent="g7bd4FB1pQx1--MT-t91-1" source="g7bd4FB1pQx1--MT-t91-2" target="g7bd4FB1pQx1--MT-t91-11">
          <mxGeometry relative="1" as="geometry" />
        </mxCell>
        <mxCell id="g7bd4FB1pQx1--MT-t91-22" style="edgeStyle=none;rounded=0;orthogonalLoop=1;jettySize=auto;html=1;entryX=0;entryY=0.5;entryDx=0;entryDy=0;endArrow=none;endFill=0;" edge="1" parent="g7bd4FB1pQx1--MT-t91-1" source="g7bd4FB1pQx1--MT-t91-2" target="g7bd4FB1pQx1--MT-t91-12">
          <mxGeometry relative="1" as="geometry" />
        </mxCell>
        <mxCell id="g7bd4FB1pQx1--MT-t91-23" style="edgeStyle=none;rounded=0;orthogonalLoop=1;jettySize=auto;html=1;entryX=0;entryY=0.5;entryDx=0;entryDy=0;endArrow=none;endFill=0;" edge="1" parent="g7bd4FB1pQx1--MT-t91-1" source="g7bd4FB1pQx1--MT-t91-2" target="g7bd4FB1pQx1--MT-t91-13">
          <mxGeometry relative="1" as="geometry" />
        </mxCell>
        <mxCell id="g7bd4FB1pQx1--MT-t91-24" style="edgeStyle=none;rounded=0;orthogonalLoop=1;jettySize=auto;html=1;entryX=0;entryY=0.5;entryDx=0;entryDy=0;endArrow=none;endFill=0;" edge="1" parent="g7bd4FB1pQx1--MT-t91-1" source="g7bd4FB1pQx1--MT-t91-2" target="g7bd4FB1pQx1--MT-t91-14">
          <mxGeometry relative="1" as="geometry" />
        </mxCell>
        <mxCell id="g7bd4FB1pQx1--MT-t91-25" style="edgeStyle=none;rounded=0;orthogonalLoop=1;jettySize=auto;html=1;entryX=0;entryY=0.5;entryDx=0;entryDy=0;endArrow=none;endFill=0;" edge="1" parent="g7bd4FB1pQx1--MT-t91-1" source="g7bd4FB1pQx1--MT-t91-2" target="g7bd4FB1pQx1--MT-t91-17">
          <mxGeometry relative="1" as="geometry" />
        </mxCell>
        <mxCell id="g7bd4FB1pQx1--MT-t91-2" value="panitent" style="shape=umlActor;verticalLabelPosition=bottom;verticalAlign=top;html=1;outlineConnect=0;rounded=1;fillColor=none;" vertex="1" parent="g7bd4FB1pQx1--MT-t91-1">
          <mxGeometry x="40" y="350" width="30" height="60" as="geometry" />
        </mxCell>
        <mxCell id="g7bd4FB1pQx1--MT-t91-26" style="edgeStyle=none;rounded=0;orthogonalLoop=1;jettySize=auto;html=1;entryX=1;entryY=0.5;entryDx=0;entryDy=0;endArrow=none;endFill=0;" edge="1" parent="g7bd4FB1pQx1--MT-t91-1" source="g7bd4FB1pQx1--MT-t91-5" target="g7bd4FB1pQx1--MT-t91-15">
          <mxGeometry relative="1" as="geometry" />
        </mxCell>
        <mxCell id="g7bd4FB1pQx1--MT-t91-27" style="edgeStyle=none;rounded=0;orthogonalLoop=1;jettySize=auto;html=1;entryX=1;entryY=0.5;entryDx=0;entryDy=0;endArrow=none;endFill=0;" edge="1" parent="g7bd4FB1pQx1--MT-t91-1" source="g7bd4FB1pQx1--MT-t91-5" target="g7bd4FB1pQx1--MT-t91-16">
          <mxGeometry relative="1" as="geometry" />
        </mxCell>
        <mxCell id="g7bd4FB1pQx1--MT-t91-5" value="eye doctor" style="shape=umlActor;verticalLabelPosition=bottom;verticalAlign=top;html=1;outlineConnect=0;rounded=1;fillColor=none;" vertex="1" parent="g7bd4FB1pQx1--MT-t91-1">
          <mxGeometry x="710" y="120" width="30" height="60" as="geometry" />
        </mxCell>
        <mxCell id="g7bd4FB1pQx1--MT-t91-28" style="edgeStyle=none;rounded=0;orthogonalLoop=1;jettySize=auto;html=1;entryX=1;entryY=0.5;entryDx=0;entryDy=0;endArrow=none;endFill=0;" edge="1" parent="g7bd4FB1pQx1--MT-t91-1" source="g7bd4FB1pQx1--MT-t91-6" target="g7bd4FB1pQx1--MT-t91-18">
          <mxGeometry relative="1" as="geometry" />
        </mxCell>
        <mxCell id="g7bd4FB1pQx1--MT-t91-6" value="optical dispensary" style="shape=umlActor;verticalLabelPosition=bottom;verticalAlign=top;html=1;outlineConnect=0;rounded=1;fillColor=none;" vertex="1" parent="g7bd4FB1pQx1--MT-t91-1">
          <mxGeometry x="710" y="920" width="30" height="60" as="geometry" />
        </mxCell>
        <mxCell id="g7bd4FB1pQx1--MT-t91-7" value="buying glasses" style="shape=umlFrame;whiteSpace=wrap;html=1;width=120;height=30;boundedLbl=1;verticalAlign=middle;align=left;spacingLeft=5;rounded=1;fillColor=none;" vertex="1" parent="g7bd4FB1pQx1--MT-t91-1">
          <mxGeometry x="160" y="80" width="480" height="960" as="geometry" />
        </mxCell>
        <mxCell id="g7bd4FB1pQx1--MT-t91-8" value="meet a eye doctor" style="ellipse;whiteSpace=wrap;html=1;rounded=1;fillColor=none;" vertex="1" parent="g7bd4FB1pQx1--MT-t91-1">
          <mxGeometry x="325" y="350" width="150" height="60" as="geometry" />
        </mxCell>
        <mxCell id="g7bd4FB1pQx1--MT-t91-9" value="get prescription" style="ellipse;whiteSpace=wrap;html=1;rounded=1;fillColor=none;" vertex="1" parent="g7bd4FB1pQx1--MT-t91-1">
          <mxGeometry x="325" y="420" width="150" height="60" as="geometry" />
        </mxCell>
        <mxCell id="g7bd4FB1pQx1--MT-t91-11" value="go to optical dispensary" style="ellipse;whiteSpace=wrap;html=1;rounded=1;fillColor=none;" vertex="1" parent="g7bd4FB1pQx1--MT-t91-1">
          <mxGeometry x="325" y="492" width="150" height="60" as="geometry" />
        </mxCell>
        <mxCell id="g7bd4FB1pQx1--MT-t91-12" value="choose frame" style="ellipse;whiteSpace=wrap;html=1;rounded=1;fillColor=none;" vertex="1" parent="g7bd4FB1pQx1--MT-t91-1">
          <mxGeometry x="325" y="565" width="150" height="60" as="geometry" />
        </mxCell>
        <mxCell id="g7bd4FB1pQx1--MT-t91-13" value="choose frame" style="ellipse;whiteSpace=wrap;html=1;rounded=1;fillColor=none;" vertex="1" parent="g7bd4FB1pQx1--MT-t91-1">
          <mxGeometry x="325" y="640" width="150" height="60" as="geometry" />
        </mxCell>
        <mxCell id="g7bd4FB1pQx1--MT-t91-14" value="place a order" style="ellipse;whiteSpace=wrap;html=1;rounded=1;fillColor=none;" vertex="1" parent="g7bd4FB1pQx1--MT-t91-1">
          <mxGeometry x="325" y="720" width="150" height="60" as="geometry" />
        </mxCell>
        <mxCell id="g7bd4FB1pQx1--MT-t91-15" value="meet patient" style="ellipse;whiteSpace=wrap;html=1;rounded=1;fillColor=none;" vertex="1" parent="g7bd4FB1pQx1--MT-t91-1">
          <mxGeometry x="320" y="120" width="150" height="60" as="geometry" />
        </mxCell>
        <mxCell id="g7bd4FB1pQx1--MT-t91-16" value="give prescription" style="ellipse;whiteSpace=wrap;html=1;rounded=1;fillColor=none;" vertex="1" parent="g7bd4FB1pQx1--MT-t91-1">
          <mxGeometry x="320" y="200" width="150" height="60" as="geometry" />
        </mxCell>
        <mxCell id="g7bd4FB1pQx1--MT-t91-17" value="get glasses" style="ellipse;whiteSpace=wrap;html=1;rounded=1;fillColor=none;" vertex="1" parent="g7bd4FB1pQx1--MT-t91-1">
          <mxGeometry x="325" y="800" width="150" height="60" as="geometry" />
        </mxCell>
        <mxCell id="g7bd4FB1pQx1--MT-t91-18" value="create glasses" style="ellipse;whiteSpace=wrap;html=1;rounded=1;fillColor=none;" vertex="1" parent="g7bd4FB1pQx1--MT-t91-1">
          <mxGeometry x="325" y="920" width="150" height="60" as="geometry" />
        </mxCell>
      </root>
    </mxGraphModel>
  </diagram>
</mxfile>
